<svg xmlns="http://www.w3.org/2000/svg" viewBox="0 0 600 120">
<style type="text/css">
	.autologo{fill:#ffffff;}
	.autoc{fill:none; stroke-width:10.8px; stroke:#ffffff;}
</style>
<g class="autologo">
<path d="M100.7,116.7h12.1L60.6,4.8h-2.7L5.1,116.7h12.5L35,79.9L70,80c1,0,2,0,3,0l-5.4-10.9h0H40.1l19.2-40.5 l19.1,40.5"/>
<path d="M116.2,31.8h10.6v38.6c0,9.4,0.5,15.9,1.5,19.5c1.5,5.1,4.4,9.1,8.7,12c4.3,2.9,9.4,4.4,15.3,4.4
	c5.9,0,11-1.4,15.1-4.3c4.1-2.9,7-6.6,8.6-11.3c1.1-3.2,1.6-10,1.6-20.3V31.8h10.9v40.6c0,11.4-1.3,20-4,25.8
	c-2.7,5.8-6.7,10.3-12,13.6c-5.3,3.3-12.1,4.9-20.1,4.9c-8.1,0-14.8-1.6-20.2-4.9c-5.4-3.3-9.4-7.8-12.1-13.7
	c-2.7-5.9-4-14.7-4-26.4V31.8z"/>
<path d="M205.9,4.8l0,82.9c0,18.5,10.6,29.2,29.2,29.2h8.6c0-1.8,0-1.9,0-5c0-2.9,0-3.2,0-5.4l-7.9,0
	c-12.7,0-18.9-6.8-18.9-19.1l-0.1-44.9H239l4.6-10.8h-26.8l-0.1-26.9H205.9z"/>
<circle class="autoc" cx="293" cy="74" r="37"></circle>
<path d="M390.2,4.8h22.3c12.8,0,21.4,0.6,25.9,1.7c6.4,1.6,11.6,4.8,15.7,9.7c4.1,4.9,6.1,11,6.1,18.4
	c0,7.5-2,13.6-5.9,18.4c-4,4.8-9.4,8.1-16.4,9.8c-5.1,1.2-14.6,1.8-28.4,1.8h-8v52h-11.2V4.8z M401.4,15.7v37.9l18.9,0.2
	c7.7,0,13.3-0.7,16.8-2.1c3.5-1.4,6.3-3.6,8.4-6.8c2-3.1,3-6.6,3-10.4c0-3.7-1-7.2-3-10.3c-2-3.1-4.7-5.3-8-6.6
	c-3.3-1.3-8.8-2-16.3-2H401.4z"/>
<path d="M466.1,116.7l0-55.9c0-18.5,10.6-29.2,29.2-29.2h8.7c0,2.3,0,2.4,0,5.6c0,2.9,0,3.2,0,4.9h-8
	c-12.7,0-18.9,6.8-18.9,19.1l-0.2,55.6"/>
<circle class="autoc" cx="552" cy="74" r="37"></circle>
</g>
</svg>