<svg xmlns="http://www.w3.org/2000/svg" viewBox="0 0 500 164">
<style type="text/css">
	.c1{fill:#ffffff;}
	.c2{fill:#ffffff;}
</style>
<g transform="translate(7,8)">
<g class="c1">
	<path d="M56.9,34.9H18.7c0-4.9,0-4.1,0-6.1c0-5.9,1.3-7.6,6.3-7.6c6.7,0,25,0,32.2,0c1.7,0,3.2-1.8,3.2-4
		c0-2.2-1.4-4-3.2-4c-6.9,0-23.1,0-32.2,0c-9.1,0-12.7,4-12.7,15.6c0,3.4,0-2.3,0,7.1c0,8,0,16,0,24.1c0,2.2,1.4,4.1,3.2,4.1
		c1.8,0,3.2-1.8,3.2-4.1c0-4.2,0-8.3,0-12.5c0-0.7,0-1.5,0-2.2v-3.7h38.2c1.8,0,3.3-1.5,3.3-3.3C60.3,36.4,58.8,34.9,56.9,34.9z"/>
</g>
<g class="c2">
<path d="M67.2,59.9c0-14.2,0-28.4,0-42.7c0-2.2,1.4-4.1,3.2-4.1s3.2,1.8,3.2,4.1c0,14.2,0,28.4,0,42.7
	c0,2.2-1.4,4.1-3.2,4.1C68.7,63.9,67.2,62.1,67.2,59.9z"/>
<path d="M81.5,59.9c0-14.2,0-28.5,0-42.8c0-2.2,1.4-4,3.2-4c10.5,0,21,0,31.5,0c12.7,0,14.5,8.3,14.5,13.3
	c0,6.1-2.6,10-7,11.5c5.7,1.9,8.1,6.7,8.1,12.4c0,7.5-4.2,13.6-14.8,13.6c-10.8,0-21.5,0-32.3,0C82.9,63.9,81.5,62.2,81.5,59.9z
	 M117.1,34.4c4.8,0,7.4-2.5,7.4-6.9c0-4.3-2.4-7.1-7.4-7.1c-9.8,0-19.6,0-29.4,0c0,4.7,0,9.3,0,14C97.5,34.4,107.3,34.4,117.1,34.4z
	 M87.8,41.5c0,5,0,10.1,0,15.2c10,0,20,0,29.9,0c6.4,0,7.8-4,7.8-7.2c0-3.9-1.9-7.9-7.8-7.9C107.7,41.5,97.7,41.5,87.8,41.5z"/>
<path d="M184.2,34.6h-39.4c0-0.3,0-0.7,0-1.1c0-1.1,0-2.4,0-2.9c0-7.3,1.1-9.6,8.3-9.6c10.5,0,20.9,0,31.4,0
	c1.6,0,3-1.8,3-3.9c0-2.2-1.3-3.9-3-3.9c-11,0-22,0-33,0c-8.9,0-13,6.4-13,15c0,0.1,0,2.4,0,5.4c0,3.2,0,7.1,0,10.1c0,0.3,0,0.7,0,1
	c0,2.5,0,4.3,0,4.4c0,8.5,4.1,15,13,15c11,0,22,0,33,0c1.6,0,3-1.7,3-3.9c0-2.2-1.3-3.9-3-3.9c-10.5,0-20.9,0-31.4,0
	c-7.2,0-8.3-2.3-8.3-9.6c0-0.4,0-1.2,0-2c0-0.3,0-0.6,0-1c0-0.6,0-1.1,0-1.3h0v-1h39.4c1.8,0,3.3-1.5,3.3-3.3v-0.1
	C187.5,36.1,186,34.6,184.2,34.6z"/>
<path d="M242.3,58.9c0,0,1,3.6-1.8,4.8c-2.8,1.3-4.2-2.9-4.2-2.9l-8.3-19.3H201V60c0,0,0.1,3.5-3.2,3.9
	s-3.2-3.7-3.2-3.7v-0.1V16.9c0,0,0-3.3,2.9-3.8h33.1c0,0,5.5-0.1,9.4,3.3c3.9,3.5,8.8,19.1-6.1,24.3L242.3,58.9z M231.6,34.9
	c2.6,0,6.9-4.1,5.6-9.2s-5.2-5.3-5.2-5.3l-31-0.2l0.1,14.7L231.6,34.9z"/>
<path d="M299.3,58.9c0,0,1,3.6-1.8,4.8c-2.8,1.3-4.2-2.9-4.2-2.9L285,41.5h-26.9V60c0,0,0.1,3.5-3.2,3.9
	s-3.2-3.7-3.2-3.7v-0.1V16.9c0,0,0-3.3,2.9-3.8h33.1c0,0,5.5-0.1,9.4,3.3s8.8,19.1-6.1,24.3L299.3,58.9z M288.6,34.9
	c2.6,0,6.9-4.1,5.6-9.2s-5.2-5.3-5.2-5.3l-31-0.2l0.1,14.7L288.6,34.9z"/>
<path d="M334.6,13.2c-18.4,0-27.8,5.7-27.8,25.3c0,16.1,6.3,22.8,18.5,24.8c0.2,0,8.9,0.7,14.8-5.6
	c0.2-0.3,0.5-0.5,0.7-0.8c0.1-0.2,0.3-0.3,0.4-0.5c0.1-0.1,0.1-0.2,0.2-0.2c-2.1,0.2-4.3,0.3-6.8,0.3c-13.9,0-21.2-2.4-21.2-17.9
	c0-15.4,7.3-17.8,21.2-17.8c13.9,0,21.2,2.5,21.2,17.8c0,4.6-0.7,8.1-2,10.6h0c0,0-3,9.7-18.6,14.8c17.9-0.1,27.2-5.9,27.2-25.4
	C362.4,18.9,353,13.2,334.6,13.2z"/>
<path d="M411,62.1c-1.5-3.9-3.1-7.8-4.6-11.6c-10.5,0-20.9,0-31.4,0c-1.5,3.9-3.1,7.8-4.6,11.6
	c-0.8,1.9-2.6,2.7-4.1,1.8c-1.5-1-2.1-3.3-1.4-5.3c4.6-11.7,9.2-23.5,13.9-35.2c2.6-6.6,5.7-10.6,11.9-10.6c6.3,0,9.3,4,12,10.6
	c4.6,11.7,9.3,23.4,13.9,35.1c0.8,2,0.1,4.3-1.4,5.3C413.6,64.8,411.7,64.1,411,62.1z M396.3,25.2c-1.2-3.1-2.8-5.1-5.6-5.1
	c-2.8,0-4.3,1.9-5.6,5.1c-2.4,6-4.8,12-7.1,18c8.5,0,17,0,25.4,0C401,37.2,398.6,31.2,396.3,25.2z"/>
<path d="M466.9,38.5c0,11.5-2.2,17.4-12.5,17.4c-8.3,0-16.6,0-24.9,0c0-11.6,0-23.2,0-34.8c8.3,0,16.6,0,24.9,0
	C464.7,21.1,466.9,27.2,466.9,38.5z M423.1,59.9c0,2.2,1.4,4,3.2,4h1.9c8.8,0,17.5,0,26.3,0c13.9,0,19.1-8.5,19.1-25.4
	c0-16.8-5.2-25.4-19.1-25.4c-8.6,0-17.1,0-25.7,0h-2.5c-1.8,0-3.2,1.8-3.2,4v2.3c0,12.4,0,24.7,0,37.1L423.1,59.9L423.1,59.9z"/>
</g>
</g>
<g class="c2" transform="scale(0.51) translate(-469,-304)">
<path d="M1191.8,570.9a94.7,94.7,0,0,1-16.2-14.6c-1.7-2-3.3-4.1-4.8-6.2s-1.4-6.2,1.2-8a5.6,5.6,0,0,1,8,1.5c5.6,7.9,12.7,14.2,20.6,19.7,1.4,1,2.3,1.2,3.7,0a58.2,58.2,0,0,0,18.3-22.3c.8-1.8.7-2.4-1.5-2.4h-49.9c-4.6,0-7.4-3.6-6-7.5s2.8-3.6,5.6-3.7h22.5c1.8,0,2.5-.4,2.4-2.2a85.1,85.1,0,0,1,0-10.1c.1-1.7-.6-2.1-2.2-2.1h-22.3c-3.7,0-6.2-2.2-6.3-5.4s2.3-5.8,6.1-5.9c7.3,0,14.6-.1,21.8.1,2.4,0,3.1-.7,2.9-3a13.7,13.7,0,0,1,.1-3.5,5.6,5.6,0,0,1,11.2.6v.5c.1,5.3.1,5.3,5.4,5.3h19.4a5.7,5.7,0,0,1,5.7,3.6,5.6,5.6,0,0,1-1.6,6.3,5.8,5.8,0,0,1-4.2,1.4h-22.5c-1.6,0-2.3.4-2.2,2.1.1,3.4.1,6.9,0,10.3-.1,1.6.5,2,2,2h21.1c4.6,0,6.9,2.6,6.1,7-2,11.5-7.8,21.1-15.6,29.5a58.9,58.9,0,0,1-5.8,5.4c-1.3,1.1-1.1,1.5.3,2.2a126.9,126.9,0,0,0,20.8,7.8c3.6.9,5.5,3.5,5,6.5s-3.8,5.5-7.6,4.5a128.4,128.4,0,0,1-28.6-11.4,3.5,3.5,0,0,0-3.9,0,114,114,0,0,1-31.6,11.5c-3.5.7-6.5-1-7.2-4.1s1.1-6.1,4.7-6.9a108.1,108.1,0,0,0,23.5-7.8Z"/>
<path d="M771.7,534h24.2c3.2.1,5.5,2.1,5.8,4.9a5.6,5.6,0,0,1-4.1,6.2,9.3,9.3,0,0,1-2.4.2H772c-1.6-.1-2,.4-2,2,.1,7.3,0,14.6.1,21.9a22.2,22.2,0,0,0,.5,4.5c.9,3.5,3.2,5.4,7.2,5.5,5.9.2,11.8.2,17.7.2,3.1.1,5.2,1.5,6,3.9s-1.2,7.3-4.7,7.3c-7.4,0-14.7.7-22.1-.4-9.5-1.3-14.9-7.3-15.7-17s-.2-17-.2-25.5c0-2-.6-2.5-2.6-2.5-9.7.2-19.5.1-29.2.1-1.7-.1-2.2.5-2.6,2.1-3.1,14-9.2,26.2-20.9,35.2a44.3,44.3,0,0,1-15,7.6c-3.6,1.1-6.6-.2-7.6-3.3s.5-6.2,4.1-7.3c15.9-5.4,23.8-17.5,28-32.8.4-1.5-.4-1.5-1.5-1.5H686.4c-4.1,0-6.6-2.1-6.6-5.6s2.5-5.7,6.6-5.7h44.8c2.1,0,2.9-.4,2.9-2.7-.2-11.5,0-23-.2-34.4,0-3.5,2.2-6.3,5.7-6.4s5.6,2.5,5.6,6.3c0,11.6,0,23.1-.1,34.7,0,2,.6,2.5,2.6,2.5Z"/>
<path d="M845.5,557.3c0-6.7,0-13.4.1-20.1,0-1.6-.5-2-2.1-2h-9.8c-3.3-.1-5.6-2.2-5.7-5.5V499.4a5.4,5.4,0,0,1,5.6-5.6q15.6-.2,31.2,0a5.3,5.3,0,0,1,5.5,5.6c.1,10.1.1,20.3,0,30.4,0,3.3-2.3,5.4-5.7,5.5h-6.2c-1.3,0-1.6.5-1.6,1.7q.2,5.3,0,10.5c0,1.3.3,1.8,1.7,1.7s5,0,7.5,0,5.6,2.2,5.7,5.4a5.3,5.3,0,0,1-5.4,5.8c-2.5.2-5.1.1-7.6.1s-1.9.1-1.9,1.6c.1,5.3.1,10.5,0,15.8,0,1.5.6,1.7,1.9,1.6h7.6c3.6.1,6.1,2.4,6.2,5.7s-2.6,5.6-6.2,5.6H842.4c-10.1-.1-15.8-5.9-15.8-16s.1-17.9-.1-26.8a5.8,5.8,0,0,1,5.5-6.2c3.3-.1,5.7,2.5,5.7,6.2.1,8.9,0,17.9,0,26.8a5,5,0,0,0,7.1,4.7c1.1-.5.7-1.4.7-2.1C845.6,570.6,845.5,564,845.5,557.3Zm3.8-52.2h-8.4c-1.2-.1-1.5.4-1.5,1.5v15.7c0,1.3.4,1.7,1.6,1.7h16.6c1.2,0,1.6-.5,1.6-1.7-.1-5.2-.1-10.5,0-15.7,0-1.2-.4-1.6-1.5-1.5Z"/>
<path d="M932.1,509H887.7c-6,0-8.4-3.8-5.9-9.2,1-2.1,1.9-4.2,3-6.2a5.7,5.7,0,0,1,6.4-2.8,5.1,5.1,0,0,1,4.2,4.9c0,1.8.7,1.9,2.2,1.9h41.5c6.2,0,8.6,3.3,6.5,9.1-3.3,9.4-9.4,16.9-17.1,23.1l-3.3,2.5a45.4,45.4,0,0,0,9.1,2.4,84.3,84.3,0,0,0,12.3,1.5c3.7.2,6,2.8,5.7,6.3s-3,5.3-6.6,5c-11.3-.9-22.3-2.9-32.8-7.3a2.8,2.8,0,0,0-2.5,0c-9.5,4-19.6,6.1-29.8,7.3-3.5.4-6.3-1.7-6.7-4.9s1.8-6,5.4-6.4a94.7,94.7,0,0,0,15.9-2.9,6.2,6.2,0,0,0,2.9-1.1,62.6,62.6,0,0,1-7.8-6.7c-1.2-1.4-2.6-2.8-3.7-4.3a5.7,5.7,0,1,1,9.1-6.8c3.8,5.2,8.9,8.9,14.4,12,.7.4,1.4.9,2.4.4C920.3,522.5,927,517.1,932.1,509Z"/>
<path d="M1143.7,539.8l7.3-3.7c3.2-1.6,6.5-.8,8.1,2a5.8,5.8,0,0,1-2.6,7.9c-3.6,1.9-7.3,3.7-11,5.3a2.7,2.7,0,0,0-1.8,2.9c.1,6.9,0,13.8,0,20.8,0,9.9-5.1,15.1-15,15.6-2.7.2-5.5.1-8.2.1a5.6,5.6,0,0,1-.3-11.2c2.9-.2,5.8-.1,8.6-.2s3.5-.9,3.5-3.7c0-5.7,0-11.3.1-17,0-1.6-.4-2-2.1-1.4s-4.5,1.5-6.8,2.1a5.6,5.6,0,0,1-7-3.8c-.9-2.9.7-5.8,3.8-6.9l10.2-3.4a2.3,2.3,0,0,0,1.9-2.5q-.2-12.3,0-24.6c0-1.7-.5-2.3-2.2-2.2s-5.4.1-8.1,0-5.8-2.4-5.8-5.6a5.5,5.5,0,0,1,5.9-5.6h8.4c1.3,0,1.8-.3,1.8-1.7s-.1-4.5,0-6.7a5.8,5.8,0,0,1,4.2-5.5,5.7,5.7,0,0,1,7.1,6.1,50.5,50.5,0,0,1,0,5.5c-.2,2,.6,2.4,2.4,2.3h8.9a5.7,5.7,0,0,1,5.8,5.7,5.4,5.4,0,0,1-5.6,5.5q-4.8.1-9.6,0c-1.1,0-1.9,0-1.9,1.5Z"/>
<path d="M913.6,590.7H886.3c-4.4,0-6.4-2.1-6.4-6.5V557c0-4.1,2.1-6.4,6.3-6.4h55.1c3.9,0,6.2,2.3,6.2,6.3v27.4c0,4.2-2.2,6.4-6.3,6.4Zm.2-28.8c-6.9,0-13.8.1-20.6,0-1.6,0-2.1.5-2.1,2,.1,4.6.1,9.1,0,13.6,0,1.5.5,2,2,1.9h41.2c1.5.1,1.9-.4,1.9-1.9-.1-4.5-.1-9.1,0-13.6.1-1.6-.5-2-2-2C927.4,562,920.6,561.9,913.8,561.9Z"/>
<path d="M993.5,556.1c0-9.5,0-18.9.1-28.4,0-1.9-.6-2.3-2.3-2.2-3.6.1-7.2,0-10.8,0s-6.2-2.2-6.2-5.7,2.3-5.6,6.3-5.6h11c1.6,0,2.1-.5,1.9-2s1.1-5.6-.5-7.1-4.5-.4-6.9-.4h-6.2a5.6,5.6,0,0,1,0-11.1h36.9a5.6,5.6,0,0,1,.1,11.1q-4.9.2-9.9,0c-1.7-.1-2.2.6-2.1,2.2a25.3,25.3,0,0,1,0,5.5c0,1.4.4,1.9,1.9,1.9h9.6c3.5.1,5.9,2.2,6.1,5.4s-2.2,5.7-5.8,5.9-6.3.1-9.4,0-2.4.5-2.4,2.4c.1,18.4.1,36.7.1,55.1a12.3,12.3,0,0,1-.2,2.7,5.6,5.6,0,0,1-5.9,5,5.5,5.5,0,0,1-5.3-5.7c-.1-4.4-.1-8.7-.1-13.1Z"/>
<path d="M1084.1,525.7v28.9c-.1,1.7.3,2.5,2.2,2.3a18.2,18.2,0,0,1,3.3-.1,5.7,5.7,0,0,1,5.7,5.6,5.7,5.7,0,0,1-5.5,5.8c-1.9.1-4.2-.8-5.3.4s-.3,3.6-.4,5.5v10.5c0,3.7-2.3,6.1-5.6,6.1s-5.7-2.5-5.7-6.1-.2-9.4,0-14c.1-2.1-.6-2.5-2.6-2.5h-34.5c-3.9-.1-6.4-2.4-6.3-6s2.5-5.3,6.1-5.4c11.4,0,22.7.1,34.1,0,3.6,0,3.1.5,3.1-3.1V497.3c0-4.3,2.4-6.9,6.1-6.7s5.3,2.6,5.3,6.2Z"/>
<path d="M988.5,554.1c-.3,6.1.7,13.5-.7,20.9a32,32,0,0,1-5.1,12.2c-2.1,3.3-5.6,4.2-8.4,2.3s-3.2-5.2-1-8.5a23.6,23.6,0,0,0,3.9-12.9c-.1-10.5-.1-21.1,0-31.7,0-3.5,2.1-5.8,5.2-6s5.7,2,6.1,5.5v18.2Z"/>
<path d="M1020.9,560.6c0,8.2.1,16.3,0,24.4a5.3,5.3,0,0,1-4.1,5.5,5.5,5.5,0,0,1-6.2-2.4,5.1,5.1,0,0,1-.8-3.2V536.2c0-3.5,2.3-5.8,5.6-5.8s5.5,2.4,5.5,5.9C1021,544.4,1020.9,552.5,1020.9,560.6Z"/>
<path d="M1067.9,542.6c0,4.3-4.3,6.8-8.3,4.8a120.6,120.6,0,0,0-21.4-8.1l-3.5-.9a5.7,5.7,0,0,1-4.1-7,5.6,5.6,0,0,1,6.9-3.9,129,129,0,0,1,26.9,9.7C1066.7,538.3,1068,540,1067.9,542.6Z"/>
<path d="M1067.9,512.9c0,4.1-3.9,7-7.6,5.2a141.3,141.3,0,0,0-26-9.3,5.6,5.6,0,0,1,1.8-10.9,29.1,29.1,0,0,1,7.2,1.7,118.7,118.7,0,0,1,20.8,7.9C1066.4,508.6,1068,510.2,1067.9,512.9Z"/>
<path d="M770.1,528.4a5.6,5.6,0,0,1-4.7-8.6c5-7.3,10.3-14.4,15.6-21.4a5.6,5.6,0,0,1,9,6.6c-5,7.1-10.2,14.2-15.4,21.2A5.4,5.4,0,0,1,770.1,528.4Z"/>
<path d="M713.1,520.9a5.6,5.6,0,0,1-3.8,5.4,5.4,5.4,0,0,1-6.4-2.1L690,503.1a5.6,5.6,0,0,1,2-7.5,5.5,5.5,0,0,1,7.8,1.8l12.5,20.5A5.2,5.2,0,0,1,713.1,520.9Z"/>
</g>
</svg>
