<?xml version="1.0" encoding="utf-8"?>
<svg version="1.1" xmlns="http://www.w3.org/2000/svg" xmlns:xlink="http://www.w3.org/1999/xlink" x="0px" y="0px" viewBox="0 0 492 63.33" style="enable-background:new 0 0 492 63.33;" xml:space="preserve">
<style type="text/css">
	.en1{fill:#ea5413;}
	.en2{fill:#666;}
</style>
<g class="en1">
	<path d="M50.99,29.93H12.75c0-4.92,0-4.11,0-6.15c0-5.93,1.26-7.57,6.26-7.57c6.69,0,25.02,0,32.15,0
		c1.74,0,3.15-1.78,3.15-4c0-2.19-1.41-4-3.15-4c-6.88,0-23.12,0-32.15,0c-9.14,0-12.69,4.03-12.69,15.56c0,3.41,0-2.28,0,7.07
		c0,8.02,0,16.05,0,24.09c0,2.25,1.44,4.06,3.21,4.06c1.79,0,3.22-1.81,3.22-4.06c0-4.17,0-8.31,0-12.45c0-0.73,0-1.46,0-2.19v-3.71
		h38.23c1.84,0,3.33-1.49,3.33-3.33C54.31,31.42,52.83,29.93,50.99,29.93z"/>
</g>
<g class="en2">
	<path d="M64.29,54.93c0-14.24,0-28.44,0-42.65c0-2.25,1.44-4.07,3.22-4.07c1.78,0,3.23,1.82,3.23,4.07
		c0,14.21,0,28.41,0,42.65c0,2.25-1.45,4.06-3.23,4.06C65.73,58.99,64.29,57.18,64.29,54.93z"/>
	<path d="M81.54,54.98c0-14.24,0-28.48,0-42.75c0-2.21,1.42-4.01,3.17-4.01c10.51,0,21.02,0,31.53,0
		c12.73,0,14.49,8.32,14.49,13.29c0,6.09-2.65,9.96-7.05,11.52c5.75,1.86,8.15,6.67,8.15,12.39c0,7.48-4.22,13.57-14.82,13.57
		c-10.76,0-21.53,0-32.3,0C82.97,58.99,81.54,57.21,81.54,54.98z M117.18,29.45c4.76,0,7.38-2.46,7.38-6.93
		c0-4.3-2.39-7.06-7.38-7.06c-9.78,0-19.58,0-29.36,0c0,4.68,0,9.3,0,13.98C97.6,29.45,107.4,29.45,117.18,29.45z M87.82,36.58
		c0,5.04,0,10.09,0,15.15c9.98,0,19.97,0,29.94,0c6.41,0,7.75-3.96,7.75-7.21c0-3.87-1.93-7.94-7.75-7.94
		C107.79,36.58,97.8,36.58,87.82,36.58z"/>
	<path d="M186.58,29.67h-39.42c0-0.31,0-0.69,0-1.13c0-1.08,0-2.39,0-2.93c0-7.28,1.14-9.6,8.34-9.6
		c10.46,0,20.92,0,31.38,0c1.63,0,2.97-1.75,2.97-3.88c0-2.16-1.34-3.91-2.97-3.91c-11.02,0-22.03,0-33.04,0
		c-8.95,0-13.02,6.42-13.02,14.97c0,0.1,0,2.38,0,5.36c0,3.16,0,7.13,0,10.1c0,0.34,0,0.65,0,0.95c0,2.52,0,4.35,0,4.42
		c0,8.54,4.07,14.97,13.02,14.97c11.01,0,22.02,0,33.04,0c1.64,0,2.97-1.74,2.97-3.88c0-2.15-1.34-3.93-2.97-3.93
		c-10.46,0-20.92,0-31.38,0c-7.2,0-8.34-2.3-8.34-9.57c0-0.4,0-1.21,0-2.01c0-0.31,0-0.64,0-0.95c0-0.63,0-1.12,0-1.32
		c0,0,0.01,0,0.01,0v-1h39.41c1.81,0,3.27-1.46,3.27-3.27v-0.11C189.85,31.14,188.39,29.67,186.58,29.67z"/>
	<path d="M246.63,53.92c0,0,0.97,3.56-1.8,4.83c-2.75,1.29-4.24-2.87-4.24-2.87l-8.32-19.3h-26.87v18.51
		c0,0,0.06,3.54-3.23,3.88s-3.21-3.7-3.21-3.7v-0.08v-43.2c0,0,0-3.29,2.91-3.78h33.12c0,0,5.46-0.12,9.4,3.35
		c3.94,3.46,8.79,19.14-6.08,24.27L246.63,53.92z M235.94,29.96c2.63,0.02,6.91-4.06,5.56-9.25s-5.19-5.27-5.19-5.27l-31.04-0.24
		l0.14,14.73L235.94,29.96z"/>
	<path d="M304.05,53.92c0,0,0.97,3.56-1.8,4.83c-2.75,1.29-4.24-2.87-4.24-2.87l-8.32-19.3h-26.87v18.51
		c0,0,0.06,3.54-3.23,3.88s-3.21-3.7-3.21-3.7v-0.08v-43.2c0,0,0-3.29,2.91-3.78h33.12c0,0,5.46-0.12,9.4,3.35
		s8.79,19.14-6.08,24.27L304.05,53.92z M293.36,29.96c2.63,0.02,6.91-4.06,5.56-9.25s-5.19-5.27-5.19-5.27l-31.04-0.24l0.14,14.73
		L293.36,29.96z"/>
	<path d="M341.32,8.22c-18.36,0-27.84,5.72-27.84,25.35c0,16.07,6.29,22.82,18.53,24.78c0.25,0.02,8.94,0.72,14.81-5.61
		c0.23-0.26,0.46-0.54,0.7-0.82c0.14-0.17,0.28-0.34,0.42-0.52c0.06-0.08,0.12-0.17,0.19-0.25c-2.06,0.21-4.32,0.3-6.81,0.3
		c-13.89,0-21.21-2.39-21.21-17.87c0-15.38,7.32-17.82,21.21-17.82c13.9,0,21.22,2.45,21.22,17.82c0,4.63-0.67,8.07-1.96,10.64
		c0,0,0.02,0,0.02,0s-3,9.69-18.63,14.76c17.92-0.14,27.19-5.91,27.19-25.41C369.16,13.94,359.67,8.22,341.32,8.22z"/>
	<path d="M421.38,57.16c-1.54-3.87-3.08-7.75-4.6-11.62c-10.45,0-20.91,0-31.36,0c-1.54,3.87-3.07,7.75-4.59,11.62
		c-0.77,1.93-2.63,2.7-4.15,1.78c-1.54-1-2.15-3.34-1.39-5.28c4.64-11.72,9.25-23.46,13.88-35.15c2.58-6.62,5.68-10.64,11.89-10.64
		c6.27,0,9.33,4.03,11.96,10.64c4.63,11.69,9.27,23.43,13.89,35.13c0.75,1.95,0.15,4.31-1.39,5.31
		C424,59.87,422.14,59.11,421.38,57.16z M406.69,20.2c-1.24-3.12-2.75-5.05-5.63-5.05c-2.8,0-4.34,1.94-5.58,5.05
		c-2.38,6.02-4.76,12.04-7.14,18.05c8.48,0,16.96,0,25.44,0C411.41,32.24,409.04,26.22,406.69,20.2z"/>
	<path d="M479.15,33.59c0,11.45-2.23,17.38-12.49,17.38c-8.31,0-16.61,0-24.91,0c0-11.61,0-23.22,0-34.83
		c8.3,0,16.6,0,24.91,0C476.93,16.15,479.15,22.25,479.15,33.59z M435.3,54.98c0,2.23,1.43,4.01,3.17,4.01h1.9
		c8.76,0,17.53,0,26.3,0c13.9,0,19.11-8.45,19.11-25.39c0-16.77-5.17-25.38-19.11-25.38c-8.57,0-17.12,0-25.68,0h-2.51
		c-1.75,0-3.17,1.81-3.17,4.01v2.33c0,12.39,0,24.74,0,37.1V54.98z"/>
</g>
</svg>
