<svg xmlns="http://www.w3.org/2000/svg" viewBox="0 0 446 76">
<style type="text/css">
	.c1{fill:#EA5413;}
	.c2{fill:#666666;}
	.cr{fill:none; stroke-width:16px; stroke:#666666;}
</style>
<g transform="scale(0.9)" transform-origin="0 50%">
<g class="c1">
	<path d="M56.9,34.9H18.7c0-4.9,0-4.1,0-6.1c0-5.9,1.3-7.6,6.3-7.6c6.7,0,25,0,32.2,0c1.7,0,3.2-1.8,3.2-4
		c0-2.2-1.4-4-3.2-4c-6.9,0-23.1,0-32.2,0c-9.1,0-12.7,4-12.7,15.6c0,3.4,0-2.3,0,7.1c0,8,0,16,0,24.1c0,2.2,1.4,4.1,3.2,4.1
		c1.8,0,3.2-1.8,3.2-4.1c0-4.2,0-8.3,0-12.5c0-0.7,0-1.5,0-2.2v-3.7h38.2c1.8,0,3.3-1.5,3.3-3.3C60.3,36.4,58.8,34.9,56.9,34.9z"/>
</g>
<g class="c2">
<path d="M67.2,59.9c0-14.2,0-28.4,0-42.7c0-2.2,1.4-4.1,3.2-4.1s3.2,1.8,3.2,4.1c0,14.2,0,28.4,0,42.7
	c0,2.2-1.4,4.1-3.2,4.1C68.7,63.9,67.2,62.1,67.2,59.9z"/>
<path d="M81.5,59.9c0-14.2,0-28.5,0-42.8c0-2.2,1.4-4,3.2-4c10.5,0,21,0,31.5,0c12.7,0,14.5,8.3,14.5,13.3
	c0,6.1-2.6,10-7,11.5c5.7,1.9,8.1,6.7,8.1,12.4c0,7.5-4.2,13.6-14.8,13.6c-10.8,0-21.5,0-32.3,0C82.9,63.9,81.5,62.2,81.5,59.9z
	 M117.1,34.4c4.8,0,7.4-2.5,7.4-6.9c0-4.3-2.4-7.1-7.4-7.1c-9.8,0-19.6,0-29.4,0c0,4.7,0,9.3,0,14C97.5,34.4,107.3,34.4,117.1,34.4z
	 M87.8,41.5c0,5,0,10.1,0,15.2c10,0,20,0,29.9,0c6.4,0,7.8-4,7.8-7.2c0-3.9-1.9-7.9-7.8-7.9C107.7,41.5,97.7,41.5,87.8,41.5z"/>
<path d="M184.2,34.6h-39.4c0-0.3,0-0.7,0-1.1c0-1.1,0-2.4,0-2.9c0-7.3,1.1-9.6,8.3-9.6c10.5,0,20.9,0,31.4,0
	c1.6,0,3-1.8,3-3.9c0-2.2-1.3-3.9-3-3.9c-11,0-22,0-33,0c-8.9,0-13,6.4-13,15c0,0.1,0,2.4,0,5.4c0,3.2,0,7.1,0,10.1c0,0.3,0,0.7,0,1
	c0,2.5,0,4.3,0,4.4c0,8.5,4.1,15,13,15c11,0,22,0,33,0c1.6,0,3-1.7,3-3.9c0-2.2-1.3-3.9-3-3.9c-10.5,0-20.9,0-31.4,0
	c-7.2,0-8.3-2.3-8.3-9.6c0-0.4,0-1.2,0-2c0-0.3,0-0.6,0-1c0-0.6,0-1.1,0-1.3h0v-1h39.4c1.8,0,3.3-1.5,3.3-3.3v-0.1
	C187.5,36.1,186,34.6,184.2,34.6z"/>
<path d="M242.3,58.9c0,0,1,3.6-1.8,4.8c-2.8,1.3-4.2-2.9-4.2-2.9l-8.3-19.3H201V60c0,0,0.1,3.5-3.2,3.9
	s-3.2-3.7-3.2-3.7v-0.1V16.9c0,0,0-3.3,2.9-3.8h33.1c0,0,5.5-0.1,9.4,3.3c3.9,3.5,8.8,19.1-6.1,24.3L242.3,58.9z M231.6,34.9
	c2.6,0,6.9-4.1,5.6-9.2s-5.2-5.3-5.2-5.3l-31-0.2l0.1,14.7L231.6,34.9z"/>
<path d="M299.3,58.9c0,0,1,3.6-1.8,4.8c-2.8,1.3-4.2-2.9-4.2-2.9L285,41.5h-26.9V60c0,0,0.1,3.5-3.2,3.9
	s-3.2-3.7-3.2-3.7v-0.1V16.9c0,0,0-3.3,2.9-3.8h33.1c0,0,5.5-0.1,9.4,3.3s8.8,19.1-6.1,24.3L299.3,58.9z M288.6,34.9
	c2.6,0,6.9-4.1,5.6-9.2s-5.2-5.3-5.2-5.3l-31-0.2l0.1,14.7L288.6,34.9z"/>
<path d="M334.6,13.2c-18.4,0-27.8,5.7-27.8,25.3c0,16.1,6.3,22.8,18.5,24.8c0.2,0,8.9,0.7,14.8-5.6
	c0.2-0.3,0.5-0.5,0.7-0.8c0.1-0.2,0.3-0.3,0.4-0.5c0.1-0.1,0.1-0.2,0.2-0.2c-2.1,0.2-4.3,0.3-6.8,0.3c-13.9,0-21.2-2.4-21.2-17.9
	c0-15.4,7.3-17.8,21.2-17.8c13.9,0,21.2,2.5,21.2,17.8c0,4.6-0.7,8.1-2,10.6h0c0,0-3,9.7-18.6,14.8c17.9-0.1,27.2-5.9,27.2-25.4
	C362.4,18.9,353,13.2,334.6,13.2z"/>
<path d="M411,62.1c-1.5-3.9-3.1-7.8-4.6-11.6c-10.5,0-20.9,0-31.4,0c-1.5,3.9-3.1,7.8-4.6,11.6
	c-0.8,1.9-2.6,2.7-4.1,1.8c-1.5-1-2.1-3.3-1.4-5.3c4.6-11.7,9.2-23.5,13.9-35.2c2.6-6.6,5.7-10.6,11.9-10.6c6.3,0,9.3,4,12,10.6
	c4.6,11.7,9.3,23.4,13.9,35.1c0.8,2,0.1,4.3-1.4,5.3C413.6,64.8,411.7,64.1,411,62.1z M396.3,25.2c-1.2-3.1-2.8-5.1-5.6-5.1
	c-2.8,0-4.3,1.9-5.6,5.1c-2.4,6-4.8,12-7.1,18c8.5,0,17,0,25.4,0C401,37.2,398.6,31.2,396.3,25.2z"/>
<path d="M466.9,38.5c0,11.5-2.2,17.4-12.5,17.4c-8.3,0-16.6,0-24.9,0c0-11.6,0-23.2,0-34.8c8.3,0,16.6,0,24.9,0
	C464.7,21.1,466.9,27.2,466.9,38.5z M423.1,59.9c0,2.2,1.4,4,3.2,4h1.9c8.8,0,17.5,0,26.3,0c13.9,0,19.1-8.5,19.1-25.4
	c0-16.8-5.2-25.4-19.1-25.4c-8.6,0-17.1,0-25.7,0h-2.5c-1.8,0-3.2,1.8-3.2,4v2.3c0,12.4,0,24.7,0,37.1L423.1,59.9L423.1,59.9z"/>
</g>
</g>
<g class="c2" transform="scale(0.07) translate(6020,6)">
<path d="M78.8,196.8V65.5h55.3c11.1,0,19.6,1.2,25.3,3.5c5.8,2.4,10.4,6.5,13.9,12.5c3.5,6,5.2,12.6,5.2,19.8c0,9.3-2.9,17.2-8.6,23.6c-5.7,6.4-14.6,10.5-26.6,12.2c4.4,2.2,7.7,4.4,9.9,6.5c4.8,4.6,9.4,10.5,13.7,17.5l21.7,35.8H168l-16.5-27.3c-4.8-7.9-8.8-13.9-11.9-18.1c-3.1-4.2-5.9-7.1-8.4-8.8c-2.5-1.7-5-2.8-7.5-3.5c-1.9-0.4-4.9-0.6-9.2-0.6H95.3v58.3H78.8z M95.3,123.4h35.5c7.5,0,13.5-0.8,17.7-2.5c4.3-1.6,7.5-4.3,9.7-7.9c2.2-3.6,3.3-7.5,3.3-11.8c0-6.2-2.1-11.3-6.4-15.3c-4.3-4-11.1-6-20.3-6H95.3V123.4z"/>
<circle class="cr" cx="128" cy="128" r="110"></circle>
</g>
</svg>