<svg xmlns="http://www.w3.org/2000/svg" viewBox="0 0 485 127">
<style type="text/css">
	.c1{fill:#ea5413;}
	.c2{fill:#ffffff;}
	.cr{fill:none; stroke-width:16px; stroke:#ffffff;}
</style>
<g transform="scale(0.96)" transform-origin="50% 100%">
<g class="c1">
	<path d="M56.9,34.9H18.7c0-4.9,0-4.1,0-6.1c0-5.9,1.3-7.6,6.3-7.6c6.7,0,25,0,32.2,0c1.7,0,3.2-1.8,3.2-4
		c0-2.2-1.4-4-3.2-4c-6.9,0-23.1,0-32.2,0c-9.1,0-12.7,4-12.7,15.6c0,3.4,0-2.3,0,7.1c0,8,0,16,0,24.1c0,2.2,1.4,4.1,3.2,4.1
		c1.8,0,3.2-1.8,3.2-4.1c0-4.2,0-8.3,0-12.5c0-0.7,0-1.5,0-2.2v-3.7h38.2c1.8,0,3.3-1.5,3.3-3.3C60.3,36.4,58.8,34.9,56.9,34.9z"/>
</g>
<g class="c2">
<path d="M67.2,59.9c0-14.2,0-28.4,0-42.7c0-2.2,1.4-4.1,3.2-4.1s3.2,1.8,3.2,4.1c0,14.2,0,28.4,0,42.7
	c0,2.2-1.4,4.1-3.2,4.1C68.7,63.9,67.2,62.1,67.2,59.9z"/>
<path d="M81.5,59.9c0-14.2,0-28.5,0-42.8c0-2.2,1.4-4,3.2-4c10.5,0,21,0,31.5,0c12.7,0,14.5,8.3,14.5,13.3
	c0,6.1-2.6,10-7,11.5c5.7,1.9,8.1,6.7,8.1,12.4c0,7.5-4.2,13.6-14.8,13.6c-10.8,0-21.5,0-32.3,0C82.9,63.9,81.5,62.2,81.5,59.9z
	 M117.1,34.4c4.8,0,7.4-2.5,7.4-6.9c0-4.3-2.4-7.1-7.4-7.1c-9.8,0-19.6,0-29.4,0c0,4.7,0,9.3,0,14C97.5,34.4,107.3,34.4,117.1,34.4z
	 M87.8,41.5c0,5,0,10.1,0,15.2c10,0,20,0,29.9,0c6.4,0,7.8-4,7.8-7.2c0-3.9-1.9-7.9-7.8-7.9C107.7,41.5,97.7,41.5,87.8,41.5z"/>
<path d="M184.2,34.6h-39.4c0-0.3,0-0.7,0-1.1c0-1.1,0-2.4,0-2.9c0-7.3,1.1-9.6,8.3-9.6c10.5,0,20.9,0,31.4,0
	c1.6,0,3-1.8,3-3.9c0-2.2-1.3-3.9-3-3.9c-11,0-22,0-33,0c-8.9,0-13,6.4-13,15c0,0.1,0,2.4,0,5.4c0,3.2,0,7.1,0,10.1c0,0.3,0,0.7,0,1
	c0,2.5,0,4.3,0,4.4c0,8.5,4.1,15,13,15c11,0,22,0,33,0c1.6,0,3-1.7,3-3.9c0-2.2-1.3-3.9-3-3.9c-10.5,0-20.9,0-31.4,0
	c-7.2,0-8.3-2.3-8.3-9.6c0-0.4,0-1.2,0-2c0-0.3,0-0.6,0-1c0-0.6,0-1.1,0-1.3h0v-1h39.4c1.8,0,3.3-1.5,3.3-3.3v-0.1
	C187.5,36.1,186,34.6,184.2,34.6z"/>
<path d="M242.3,58.9c0,0,1,3.6-1.8,4.8c-2.8,1.3-4.2-2.9-4.2-2.9l-8.3-19.3H201V60c0,0,0.1,3.5-3.2,3.9
	s-3.2-3.7-3.2-3.7v-0.1V16.9c0,0,0-3.3,2.9-3.8h33.1c0,0,5.5-0.1,9.4,3.3c3.9,3.5,8.8,19.1-6.1,24.3L242.3,58.9z M231.6,34.9
	c2.6,0,6.9-4.1,5.6-9.2s-5.2-5.3-5.2-5.3l-31-0.2l0.1,14.7L231.6,34.9z"/>
<path d="M299.3,58.9c0,0,1,3.6-1.8,4.8c-2.8,1.3-4.2-2.9-4.2-2.9L285,41.5h-26.9V60c0,0,0.1,3.5-3.2,3.9
	s-3.2-3.7-3.2-3.7v-0.1V16.9c0,0,0-3.3,2.9-3.8h33.1c0,0,5.5-0.1,9.4,3.3s8.8,19.1-6.1,24.3L299.3,58.9z M288.6,34.9
	c2.6,0,6.9-4.1,5.6-9.2s-5.2-5.3-5.2-5.3l-31-0.2l0.1,14.7L288.6,34.9z"/>
<path d="M334.6,13.2c-18.4,0-27.8,5.7-27.8,25.3c0,16.1,6.3,22.8,18.5,24.8c0.2,0,8.9,0.7,14.8-5.6
	c0.2-0.3,0.5-0.5,0.7-0.8c0.1-0.2,0.3-0.3,0.4-0.5c0.1-0.1,0.1-0.2,0.2-0.2c-2.1,0.2-4.3,0.3-6.8,0.3c-13.9,0-21.2-2.4-21.2-17.9
	c0-15.4,7.3-17.8,21.2-17.8c13.9,0,21.2,2.5,21.2,17.8c0,4.6-0.7,8.1-2,10.6h0c0,0-3,9.7-18.6,14.8c17.9-0.1,27.2-5.9,27.2-25.4
	C362.4,18.9,353,13.2,334.6,13.2z"/>
<path d="M411,62.1c-1.5-3.9-3.1-7.8-4.6-11.6c-10.5,0-20.9,0-31.4,0c-1.5,3.9-3.1,7.8-4.6,11.6
	c-0.8,1.9-2.6,2.7-4.1,1.8c-1.5-1-2.1-3.3-1.4-5.3c4.6-11.7,9.2-23.5,13.9-35.2c2.6-6.6,5.7-10.6,11.9-10.6c6.3,0,9.3,4,12,10.6
	c4.6,11.7,9.3,23.4,13.9,35.1c0.8,2,0.1,4.3-1.4,5.3C413.6,64.8,411.7,64.1,411,62.1z M396.3,25.2c-1.2-3.1-2.8-5.1-5.6-5.1
	c-2.8,0-4.3,1.9-5.6,5.1c-2.4,6-4.8,12-7.1,18c8.5,0,17,0,25.4,0C401,37.2,398.6,31.2,396.3,25.2z"/>
<path d="M466.9,38.5c0,11.5-2.2,17.4-12.5,17.4c-8.3,0-16.6,0-24.9,0c0-11.6,0-23.2,0-34.8c8.3,0,16.6,0,24.9,0
	C464.7,21.1,466.9,27.2,466.9,38.5z M423.1,59.9c0,2.2,1.4,4,3.2,4h1.9c8.8,0,17.5,0,26.3,0c13.9,0,19.1-8.5,19.1-25.4
	c0-16.8-5.2-25.4-19.1-25.4c-8.6,0-17.1,0-25.7,0h-2.5c-1.8,0-3.2,1.8-3.2,4v2.3c0,12.4,0,24.7,0,37.1L423.1,59.9L423.1,59.9z"/>
</g>
</g>
<g class="c2" transform="translate(-4,-1)">
	<path d="M87.3,102.4h-5.7l0.3-1.9c0.1-0.4,0.3-0.8,0.6-1.1c0.3-0.3,0.7-0.4,1.1-0.4h13.1l1.6-11.1
		c0.1-0.3,0.2-0.6,0.4-0.8c0.2-0.2,0.5-0.3,0.8-0.3h5.6L103.4,99H118l-0.3,1.9c-0.1,0.4-0.3,0.8-0.6,1c-0.3,0.3-0.7,0.4-1.1,0.4h-4
		l-1,7.8c-0.1,0.4,0,0.8,0.3,1.1c0.2,0.3,0.6,0.4,1,0.4h2.8c0.4,0,0.8,0.1,1,0.4s0.4,0.7,0.3,1.1l-0.4,1.8h-9.3
		c-0.9,0-1.7-0.3-2.2-1s-0.8-1.4-0.6-2.3l1.3-9.3H93.9l-5,9.8c-1.1,1.9-2.6,2.8-4.4,2.8h-3.8L87.3,102.4z M91.7,97.4h-5.7
		c-0.1,0-0.3,0-0.4-0.1s-0.2-0.2-0.2-0.4L85,87.8h4.4c0.5,0,1,0.2,1.4,0.5c0.4,0.3,0.6,0.8,0.6,1.3L91.7,97.4z M116.2,94.1
		c-0.3,1-0.9,1.8-1.8,2.4c-0.8,0.6-1.7,0.9-2.7,0.9h-2.9l2.9-8.9c0.1-0.2,0.2-0.4,0.4-0.5c0.2-0.1,0.4-0.2,0.6-0.2h5.6L116.2,94.1z"
		/>
	<path d="M132.8,99.1l-0.4,2.7h1.8l-0.3,1.9c0,0.2-0.1,0.3-0.2,0.4c-0.1,0.1-0.3,0.2-0.4,0.2h-1.2l-1,7.7l1.8-0.1
		l-0.2,1.7c0,0.2-0.1,0.3-0.2,0.5c-0.1,0.1-0.3,0.2-0.5,0.2l-12.5,0.7l0.3-1.8c0-0.2,0.1-0.3,0.2-0.4c0.1-0.1,0.2-0.2,0.4-0.2
		l1.6-11.6c0-0.2,0.1-0.3,0.2-0.4s0.3-0.2,0.4-0.2h3.6l-1.6,11.9l1.1-0.1l1.7-12.5c0-0.2,0.1-0.3,0.2-0.5c0.1-0.1,0.3-0.2,0.5-0.2
		H132.8z M128.9,89.5l0.3-2.5h7.5l-1.2,8.7c0,0.3-0.1,0.6-0.3,0.9c-0.2,0.3-0.4,0.6-0.7,0.9c-0.6,0.5-1.2,0.7-1.9,0.7h-8.3
		c-0.7,0-1.2-0.2-1.6-0.7c-0.4-0.5-0.6-1.1-0.4-1.8l1.2-8.7h5.2l-0.3,2.3v0.1l-0.1,0.5l0,0.1l-0.7,5.5c0,0.1,0,0.3,0.1,0.4
		c0.1,0.1,0.2,0.2,0.3,0.2h1.7c0.1,0,0.1,0,0.2,0c0,0,0.1-0.1,0.2-0.1c0-0.1,0.1-0.1,0.1-0.2c0,0,0-0.1,0-0.2v0l0.8-6H128.9z
		 M143,100.7h12.7l-1.4,10.6c-0.1,0.5-0.3,1-0.5,1.4c-0.3,0.4-0.6,0.8-0.9,1.1c-0.4,0.3-0.8,0.6-1.2,0.8c-0.4,0.2-0.9,0.3-1.3,0.3
		h-12.4c-1,0-1.8-0.3-2.3-1c-0.6-0.7-0.8-1.6-0.7-2.6l1.4-10.6h6l-0.3,2.2l-0.1,0.5l-1,7.8c0,0.3,0,0.5,0.2,0.7
		c0.2,0.2,0.4,0.3,0.6,0.3h5.8c0.3,0,0.5-0.1,0.6-0.3c0.2-0.2,0.3-0.4,0.3-0.7l1.1-8.3h-6.7L143,100.7z M155.8,97.7h0.5l-0.3,2.5
		h-3.6c-0.4,0-0.9,0-1.5-0.1c-0.6,0-1.1-0.1-1.5-0.2c-0.6-0.2-1.2-0.5-1.8-0.8l-1.4-0.9l-1.4,0.8c-0.7,0.3-1.3,0.6-2,0.8
		c-0.7,0.2-1.4,0.3-2.2,0.3h-4.4l0.3-2.5h0.6c1,0,1.9-0.2,2.7-0.5c0.8-0.3,1.6-0.8,2.5-1.4l-3.1-2.8h-2.5l2.8-6.3h5.8l-0.2,0.6h12.2
		l-0.5,4l-5.9,4.6c1,0.6,1.9,1,2.6,1.3C154.4,97.6,155.1,97.7,155.8,97.7z M147,93.5l4.5-3.8H144l-0.3,0.6L147,93.5z"/>
	<path d="M162.7,97.8c0.3-0.3,0.6-0.4,1-0.4h2.4l-2.5,13.8c-0.2,1.1-0.8,2-1.6,2.7s-1.8,1.1-2.8,1.1l2.9-16.2
		C162.2,98.4,162.4,98.1,162.7,97.8z M161.6,96l0.2-1.4c0-0.3,0.2-0.6,0.4-0.8c0.2-0.2,0.5-0.4,0.8-0.4h4.4l0.6-4.3h-5.3l0.1-0.7
		c0.1-0.5,0.3-0.9,0.6-1.2c0.3-0.3,0.7-0.5,1.1-0.5h14.8l-0.1,0.6c-0.1,0.5-0.3,1-0.7,1.3c-0.4,0.4-0.8,0.5-1.3,0.5h-3.6l-0.5,4.3
		h5.5l-0.1,1c-0.1,0.4-0.2,0.8-0.5,1.1c-0.3,0.3-0.7,0.4-1,0.4h-4.1l-2.3,17.9c-0.1,0.3-0.2,0.6-0.4,0.8c-0.2,0.2-0.5,0.3-0.8,0.3
		h-4.8l2.5-19H161.6z M176.4,97.5c0.3,0,0.5,0.1,0.6,0.3c0.2,0.2,0.2,0.4,0.2,0.7l-1.6,16.6h-1.1c-0.7,0-1.3-0.3-1.8-0.8
		c-0.5-0.5-0.7-1.2-0.6-2l1.4-14.8H176.4z M177.2,110.3l0.3-1.8c0.1-0.3,0.2-0.5,0.4-0.8c0.2-0.2,0.5-0.3,0.8-0.3h9.4l2.8-19
		c0-0.4,0.2-0.8,0.6-1.1c0.3-0.3,0.7-0.5,1.1-0.5h3.5l-2.9,20.6h2.5l-0.3,2.1c0,0.2-0.1,0.4-0.3,0.6c-0.2,0.1-0.4,0.2-0.6,0.2h-1.7
		l-0.7,4.7H187l0.7-4.7H177.2z M187.6,103.9l-6.4-2.6c-1.8-0.9-2.6-2.3-2.3-4.4l9.4,3.8L187.6,103.9z M188.7,95.7l-6.2-2.9
		c-1.6-0.9-2.3-2.3-2.2-4.2l0.1-0.4l8.9,4L188.7,95.7z"/>
	<path d="M201.5,103.6l1.6-11.3h-3.3l0.2-1.5c0-0.3,0.2-0.5,0.4-0.7c0.2-0.2,0.5-0.3,0.8-0.3h2.2l0.3-2
		c0-0.3,0.2-0.5,0.4-0.7c0.2-0.2,0.4-0.3,0.7-0.3h5.1l-0.4,2.9h3.5l-0.2,1.4c-0.1,0.3-0.2,0.6-0.4,0.8c-0.2,0.2-0.5,0.3-0.9,0.3
		h-2.3l-1.5,10.9l3.5-0.3l-0.3,2c0,0.2-0.1,0.4-0.3,0.5c-0.1,0.1-0.3,0.2-0.5,0.2l-2.8,0.2l-0.8,5.7c-0.1,0.9-0.5,1.7-1.3,2.3
		c-0.7,0.6-1.5,0.9-2.4,0.9h-5l0.3-2.4h1.1c0.3,0,0.5-0.1,0.8-0.3c0.2-0.2,0.4-0.5,0.4-0.8l0.7-5.1l-3.3,0.3l0.2-1.8
		c0-0.3,0.2-0.5,0.3-0.6c0.2-0.2,0.4-0.3,0.7-0.3L201.5,103.6z M221.8,88.3l0.1-0.8c0-0.2,0.1-0.4,0.3-0.6c0.2-0.1,0.4-0.2,0.6-0.2
		h5.2l-0.2,1.6h7.6l-0.2,1.8c0,0.2-0.2,0.4-0.3,0.6c-0.2,0.2-0.4,0.2-0.7,0.2h-6.8l-0.6,3.8h7.2l-0.4,3l-7.7,8.5l5.9,8.8h-4.5
		c-1.6,0-2.9-0.7-4-2.1l-1.6-2.3l-2.8,3.1c-0.8,0.9-1.8,1.3-2.9,1.3h-5.7l8.1-9l-5.4-7.3h6.4c0.4,0,0.7,0.2,0.9,0.5l2.1,2.9l4.3-5
		h-13.3l0.2-1.7c0-0.2,0.1-0.4,0.3-0.5c0.2-0.1,0.3-0.2,0.5-0.2h6.3l0.6-3.8h-7.6l0.2-1.7c0-0.3,0.2-0.5,0.3-0.6
		c0.2-0.2,0.4-0.3,0.7-0.3H221.8z"/>
	<path d="M261.3,108.1l-4.4,0.2l0.4-2.5c0-0.2,0.1-0.3,0.2-0.5s0.3-0.2,0.5-0.2l3.8-0.2l1.6-11.6h-0.8l-0.2,1.4
		c-0.2,1-0.7,1.8-1.5,2.5c-0.8,0.7-1.6,1-2.6,1l1.7-10c0-0.2,0.1-0.4,0.3-0.5c0.1-0.1,0.3-0.2,0.5-0.2h2.8l-0.5,2.8h0.8l0.4-2.5
		c0-0.4,0.2-0.7,0.5-0.9c0.3-0.2,0.6-0.3,0.9-0.3h4.6l-0.5,3.7h2.4l-0.4,2.4c0,0.2-0.1,0.3-0.2,0.5c-0.1,0.1-0.3,0.2-0.5,0.2h-1.7
		l-1.6,11.2l2.5-0.2l-0.3,2.3c0,0.2-0.1,0.4-0.3,0.6s-0.4,0.2-0.6,0.3l-1.7,0.1l-0.9,6.5c0,0.2-0.1,0.4-0.3,0.5s-0.3,0.2-0.5,0.2
		h-5.1L261.3,108.1z M275.8,109.8c-0.4,1.4-1.2,2.6-2.4,3.6c-1.2,0.9-2.4,1.4-3.8,1.4h-0.5l5.4-21.5h5.5L275.8,109.8z M279.5,87.8
		h13.8c0.5,0,0.8,0.2,1.1,0.5s0.4,0.8,0.4,1.2l-3.1,22c-0.1,1.1-0.6,1.9-1.3,2.4c-0.7,0.5-1.5,0.8-2.4,0.8h-5l0.1-0.9
		c0.1-0.4,0.2-0.8,0.6-1c0.3-0.3,0.7-0.4,1.1-0.4h0.2c0.3,0,0.6-0.1,0.8-0.3c0.2-0.2,0.4-0.5,0.4-0.8l2.8-20.2h-10.4
		c-0.2,0.4-0.4,0.7-0.8,1s-0.7,0.4-1.1,0.4H272l2-5.8h6L279.5,87.8z M283.1,110.1c-0.4,1.4-1.2,2.5-2.2,3.4
		c-1.1,0.9-2.3,1.3-3.6,1.3h-0.8l5.4-21.5h5.5L283.1,110.1z"/>
	<path d="M296.2,110.5c0-0.1,0.1-0.2,0.2-0.3c0.1-0.1,0.2-0.1,0.3-0.1h0.7l2.8-20.8H299l0.2-1.8c0-0.2,0.1-0.3,0.2-0.4
		c0.1-0.1,0.2-0.2,0.4-0.2h14.6l-0.2,1.7c0,0.2-0.1,0.3-0.3,0.5c-0.1,0.1-0.3,0.2-0.5,0.2H313l-2.8,20.8h1.1l-0.3,2.2
		c0,0.1-0.1,0.3-0.2,0.4c-0.1,0.1-0.2,0.1-0.4,0.1h-0.7l-0.3,2.3h-5l0.3-2.3h-9L296.2,110.5z M303.2,104.1l-0.8,5.9h2.9l0.8-5.9
		H303.2z M304.2,96.3l-0.7,5.5h2.8l0.7-5.5H304.2z M305.1,89.3l-0.6,4.6h2.9l0.6-4.6H305.1z M316.1,114.9h-4.2l6-11.3h-4.9l0.4-2.7
		c0-0.2,0.1-0.4,0.3-0.6c0.2-0.2,0.3-0.2,0.6-0.2h4.8l2.1-8.2H315l0.2-1.8c0-0.2,0.1-0.3,0.2-0.4c0.1-0.1,0.3-0.2,0.4-0.2h1.4
		l-0.1-2.8h5c0.2,0,0.3,0.1,0.5,0.2c0.1,0.1,0.2,0.3,0.2,0.5l0.1,2h3.2l0.6-1.8c0.1-0.3,0.3-0.5,0.5-0.7c0.2-0.2,0.5-0.3,0.8-0.3
		h4.9l-0.8,2.8h1.5l-0.2,1.5c0,0.3-0.2,0.5-0.4,0.7c-0.2,0.2-0.4,0.2-0.7,0.2h-4.9l-2.1,8.2h7.5l-0.4,2.5c0,0.3-0.2,0.6-0.4,0.8
		c-0.2,0.2-0.5,0.3-0.7,0.3h-6.9l-0.5,1.3h3.2c0.4,0,0.6,0.2,0.8,0.6l3.4,9.5h-4.7c-0.9,0-1.6-0.5-2-1.4l-2.2-5.4l-2.6,4.5
		C318.8,114.1,317.5,114.9,316.1,114.9z"/>
	<path d="M340.8,102.5c0.6-1,1.3-1.5,2.2-1.5h4.4l-4.7,10.3c-1.4,2.5-3.2,3.7-5.4,3.7h-2.2L340.8,102.5z M351.4,99.9
		h-14.3l0.2-1.3c0.1-0.5,0.3-1,0.7-1.3s0.8-0.5,1.3-0.5h12.6l0.7-5.1H339l0.2-1.6c0.1-0.4,0.2-0.8,0.6-1.1c0.3-0.3,0.7-0.4,1.1-0.4
		H353l0.1-0.9c0-0.3,0.2-0.5,0.3-0.7c0.2-0.2,0.4-0.3,0.7-0.3h5l-0.3,1.9h13.6l-0.2,1.6c-0.1,0.4-0.3,0.8-0.6,1
		c-0.3,0.3-0.7,0.4-1,0.4h-12.2l-0.7,5.1h14.4l-0.2,1.3c-0.1,0.5-0.3,1-0.7,1.3c-0.4,0.3-0.8,0.5-1.3,0.5h-12.7l-1.9,14.4
		c0,0.2-0.1,0.3-0.2,0.5c-0.1,0.1-0.3,0.2-0.5,0.2h-5.3L351.4,99.9z M361.1,101h4.8c0.7,0,1.1,0.4,1.4,1.1l2.5,12.8h-2.9
		c-1.8,0-3-1-3.6-3L361.1,101z"/>
	<path d="M396,102.4l-1.7,12.6h-6l1.7-12.6h-4l-4.3,8.5c-1.5,2.7-3.6,4.1-6.2,4.1h-1.6l6.2-12.6h-4.5l0.3-2.1
		c0-0.2,0.1-0.4,0.3-0.6c0.2-0.1,0.3-0.2,0.5-0.2h13.7l1.2-8.9h-13.9l0.2-1.3c0.1-0.4,0.2-0.8,0.5-1c0.3-0.2,0.6-0.4,1-0.4H392
		l0-0.4c0-0.2,0.1-0.4,0.3-0.6c0.2-0.1,0.4-0.2,0.6-0.2h5.2l-0.2,1.2h13.8l-0.2,1.5c-0.1,0.3-0.2,0.6-0.5,0.9
		c-0.3,0.2-0.6,0.3-0.9,0.3h-12.6l-1.2,8.9h14.5l-0.2,1.6c-0.1,0.4-0.2,0.7-0.5,0.9c-0.3,0.2-0.6,0.3-0.9,0.3h-3.3l2.8,12.6h-4.4
		c-0.4,0-0.8-0.2-1.2-0.5c-0.4-0.3-0.6-0.7-0.7-1.1l-2.5-11H396z M384,91.5c0.9,0,1.7,0.3,2.3,1c0.6,0.6,1,1.4,1,2.4l-0.1,3.7l-7,0
		l0-7H384z M409.8,91.5l-1.5,4.9c-0.6,1.5-1.6,2.2-2.9,2.2h-5l2.2-7H409.8z"/>
</g>
<g class="c2" transform="scale(0.07) translate(6620,40)">
<path d="M78.8,196.8V65.5h55.3c11.1,0,19.6,1.2,25.3,3.5c5.8,2.4,10.4,6.5,13.9,12.5c3.5,6,5.2,12.6,5.2,19.8c0,9.3-2.9,17.2-8.6,23.6c-5.7,6.4-14.6,10.5-26.6,12.2c4.4,2.2,7.7,4.4,9.9,6.5c4.8,4.6,9.4,10.5,13.7,17.5l21.7,35.8H168l-16.5-27.3c-4.8-7.9-8.8-13.9-11.9-18.1c-3.1-4.2-5.9-7.1-8.4-8.8c-2.5-1.7-5-2.8-7.5-3.5c-1.9-0.4-4.9-0.6-9.2-0.6H95.3v58.3H78.8z M95.3,123.4h35.5c7.5,0,13.5-0.8,17.7-2.5c4.3-1.6,7.5-4.3,9.7-7.9c2.2-3.6,3.3-7.5,3.3-11.8c0-6.2-2.1-11.3-6.4-15.3c-4.3-4-11.1-6-20.3-6H95.3V123.4z"/>
<circle class="cr" cx="128" cy="128" r="110"></circle>
</g>
</svg>